<svg width="512" height="512" viewBox="0 0 512 512" fill="none" xmlns="http://www.w3.org/2000/svg">
<rect width="512" height="512" fill="#F5F5F5"/>
<rect width="512" height="512" fill="black"/>
<path d="M157.678 354V147.6H187.278V171.6H188.878C192.078 163.6 196.611 156.8 202.478 151.2C208.345 145.6 217.011 142.8 228.478 142.8C240.478 142.8 249.411 145.867 255.278 152C261.145 157.867 264.745 165.6 266.078 175.2H267.278C271.011 165.867 276.345 158.133 283.278 152C290.211 145.867 299.811 142.8 312.078 142.8C328.878 142.8 340.078 148.667 345.678 160.4C351.545 172.133 354.478 188.933 354.478 210.8V354H324.878V216C324.878 198.4 323.011 186.267 319.278 179.6C315.811 172.667 309.278 169.2 299.678 169.2C291.145 169.2 284.211 172 278.878 177.6C273.545 182.933 270.878 191.2 270.878 202.4V354H241.278V216C241.278 198.4 239.411 186.267 235.678 179.6C232.211 172.667 225.811 169.2 216.478 169.2C207.945 169.2 200.878 172 195.278 177.6C189.945 182.933 187.278 191.2 187.278 202.4V354H157.678Z" fill="white"/>
</svg>
